Coordinates
version=1
nRows=9
nColumns=24
inDegrees=yes

Units are S.I. units (second, meters, Newtons, ...)
Angles are in degrees.

endheader
time	pelvis_tilt	pelvis_list	pelvis_rotation	pelvis_tx	pelvis_ty	pelvis_tz	hip_flexion_r	hip_adduction_r	hip_rotation_r	knee_angle_r	ankle_angle_r	subtalar_angle_r	mtp_angle_r	hip_flexion_l	hip_adduction_l	hip_rotation_l	knee_angle_l	ankle_angle_l	subtalar_angle_l	mtp_angle_l	lumbar_extension	lumbar_bending	lumbar_rotation
      1.42083333	     -3.86841082	      2.04130034	     -4.81528218	      0.51391678	      1.07461548	      0.27551573	     20.55988463	     -4.61307970	     -5.17721166	    -63.22289752	      5.19158350	     -6.38251428	      3.47481843	     11.25532167	      3.77776729	     -2.08788882	    -13.17194600	      8.65007252	      3.18116065	      0.53962310	     -8.39234615	     -4.87038425	     -0.62718060
      1.42500000	     -3.86779016	      1.95562945	     -4.70826317	      0.51885314	      1.07526329	      0.27515196	     20.96146347	     -4.48449663	     -5.27347279	    -62.53195767	      5.44854759	     -6.22360754	      3.53436431	     10.77315358	      3.74279462	     -1.99985878	    -12.78325158	      8.68790707	      3.25963926	      0.54400510	     -8.38695996	     -4.74639727	     -0.70843057
      1.42916667	     -3.85144399	      1.89277456	     -4.59796397	      0.52378451	      1.07588051	      0.27476143	     21.34369427	     -4.39384683	     -5.37726030	    -61.82725663	      5.71243346	     -6.06305903	      3.63288598	     10.26248263	      3.74070242	     -1.86057737	    -12.36091121	      8.71774621	      3.26110470	      0.55035052	     -8.40238969	     -4.61873067	     -0.91826634
      1.43333333	     -3.86833956	      1.81177832	     -4.48491773	      0.52869866	      1.07639854	      0.27440192	     21.74628427	     -4.27180213	     -5.47329877	    -61.07990236	      5.95589731	     -5.97315725	      3.69469945	      9.80693546	      3.70787436	     -1.75360206	    -11.98098731	      8.73410073	      3.30357400	      0.55436782	     -8.37596010	     -4.49978089	     -1.03523478
      1.43750000	     -3.86203850	      1.76375511	     -4.37742164	      0.53359776	      1.07687912	      0.27403523	     22.12925351	     -4.19669074	     -5.56685599	    -60.33001590	      6.18781988	     -5.88824441	      3.78222346	      9.31669707	      3.71682182	     -1.60766488	    -11.57284475	      8.76663285	      3.28226408	      0.55970628	     -8.38222687	     -4.39150730	     -1.23748525
      1.44166667	     -3.88058471	      1.69410182	     -4.26429550	      0.53848722	      1.07729492	      0.27368099	     22.51958124	     -4.09187955	     -5.66027340	    -59.53535380	      6.39533827	     -5.85637034	      3.85694883	      8.86555240	      3.69536062	     -1.47394976	    -11.19179237	      8.79950379	      3.28494975	      0.56479272	     -8.35461877	     -4.27311309	     -1.38413541
      1.44583333	     -3.89501412	      1.63896772	     -4.15495625	      0.54336560	      1.07765784	      0.27334067	     22.90145702	     -4.00310973	     -5.74306589	    -58.72392301	      6.60175443	     -5.84512529	      3.92179485	      8.41412372	      3.68783557	     -1.34441503	    -10.81598834	      8.83260632	      3.28199156	      0.56937258	     -8.33580252	     -4.17198859	     -1.52973313
      1.45000000	     -3.94352175	      1.59612592	     -4.05995775	      0.54822845	      1.07787428	      0.27304055	     23.32387622	     -3.91949690	     -5.80667606	    -57.90912699	      6.81548589	     -5.87588090	      3.93949141	      8.01355269	      3.68175437	     -1.27803654	    -10.46517814	      8.88545754	      3.36591276	      0.57197395	     -8.27488343	     -4.09192430	     -1.57667092
      1.45416667	     -3.93195919	      1.52857665	     -3.93927864	      0.55306504	      1.07819877	      0.27269915	     23.65028498	     -3.82410131	     -5.89807762	    -57.03363242	      6.96826965	     -5.91651784	      3.98643892	      7.54332301	      3.66273995	     -1.10148137	    -10.10636075	      8.94000980	      3.30353549	      0.57650501	     -8.29314616	     -3.97494308	     -1.80195236
